<svg xmlns="http://www.w3.org/2000/svg" viewBox="0 0 100 100" width="100" height="100" role="img" aria-label="Sloppy">
  <defs>
    <radialGradient id="body" gradientUnits="userSpaceOnUse" cx="42" cy="36" r="72">
      <stop offset="0%" stop-color="#B4F25A"/>
      <stop offset="52%" stop-color="#5FCB37"/>
      <stop offset="100%" stop-color="#3AA83C"/>
    </radialGradient>
    <linearGradient id="drop" x1="0" y1="0" x2="0.4" y2="1">
      <stop offset="0%" stop-color="#B4F25A"/>
      <stop offset="100%" stop-color="#5FCB37"/>
    </linearGradient>
    <radialGradient id="pool" cx="50%" cy="50%" r="50%">
      <stop offset="0%" stop-color="#1B6B2A" stop-opacity="0.38"/>
      <stop offset="100%" stop-color="#1B6B2A" stop-opacity="0"/>
    </radialGradient>
    <filter id="soft" x="-50%" y="-50%" width="200%" height="200%">
      <feGaussianBlur stdDeviation="5"/>
    </filter>
    <clipPath id="inside"><path d="M85.99 4.18C86.61 4.41,87.24 4.86,87.66 5.36C88.08 5.87,88.41 6.57,88.52 7.22C88.64 7.87,88.57 8.64,88.34 9.26C88.11 9.88,87.67 10.51,87.16 10.94C86.65 11.36,85.95 11.68,85.3 11.8C84.65 11.91,83.88 11.84,83.26 11.61C82.64 11.39,82.01 10.94,81.59 10.43C81.17 9.93,80.84 9.23,80.73 8.58C80.61 7.93,80.68 7.16,80.91 6.54C81.14 5.92,81.58 5.28,82.09 4.86C82.59 4.44,83.3 4.11,83.95 4C84.6 3.89,85.37 3.96,85.99 4.18ZM78.67 15.79C79.2 16.5,79.3 17.95,78.99 18.86C78.68 19.77,77.51 20.41,76.82 21.23C76.13 22.05,75.5 22.91,74.86 23.78C74.22 24.64,73.42 25.45,72.98 26.41C72.53 27.37,72.37 28.49,72.21 29.55C72.05 30.61,71.85 31.73,72 32.78C72.15 33.82,72.57 34.88,73.08 35.81C73.59 36.75,74.42 37.51,75.06 38.37C75.7 39.24,76.16 40.32,76.93 41.02C77.7 41.71,78.69 42.37,79.68 42.52C80.67 42.67,81.85 42.27,82.86 41.93C83.87 41.59,84.84 40.48,85.75 40.49C86.65 40.51,88.04 41.26,88.3 42C88.56 42.74,87.65 43.95,87.32 44.94C86.98 45.93,86.28 46.92,86.28 47.93C86.28 48.93,87.1 49.91,87.33 50.95C87.57 51.99,87.79 53.11,87.68 54.15C87.57 55.19,87.19 56.3,86.66 57.2C86.13 58.11,85.33 58.95,84.49 59.59C83.65 60.23,82.62 60.68,81.62 61.05C80.61 61.43,79.22 61.32,78.47 61.85C77.73 62.39,77.01 63.46,77.16 64.25C77.32 65.05,78.75 65.75,79.4 66.6C80.05 67.45,80.73 68.37,81.06 69.36C81.39 70.35,81.54 71.53,81.4 72.56C81.25 73.58,80.79 74.69,80.17 75.52C79.55 76.35,78.61 77.09,77.66 77.52C76.72 77.96,75.56 78.14,74.51 78.14C73.45 78.14,72.25 77.42,71.33 77.53C70.42 77.65,69.54 78.09,69.03 78.82C68.53 79.56,68.55 80.91,68.3 81.96C68.06 83,68.05 84.26,67.55 85.09C67.06 85.92,66.02 87.03,65.33 86.94C64.64 86.86,64.06 85.39,63.42 84.57C62.77 83.75,62.3 82.4,61.46 82.03C60.63 81.65,59.23 81.85,58.4 82.32C57.56 82.79,56.89 83.9,56.45 84.84C56.01 85.77,55.84 86.88,55.74 87.94C55.65 88.99,55.8 90.09,55.88 91.16C55.96 92.23,56.59 93.52,56.23 94.33C55.87 95.14,54.55 96.04,53.73 96C52.9 95.96,51.99 94.85,51.28 94.09C50.56 93.33,50.12 92.26,49.44 91.44C48.76 90.62,48.05 89.77,47.19 89.17C46.32 88.57,45.13 88.41,44.24 87.83C43.35 87.25,42.5 86.52,41.84 85.69C41.17 84.86,40.81 83.78,40.27 82.86C39.74 81.93,39.4 80.8,38.64 80.14C37.87 79.47,36.7 79.07,35.66 78.87C34.62 78.67,33.49 78.99,32.42 78.92C31.35 78.84,30.23 78.76,29.24 78.4C28.24 78.04,27.24 77.47,26.47 76.75C25.7 76.04,25.04 75.08,24.64 74.11C24.25 73.14,24.08 71.99,24.09 70.93C24.11 69.88,24.95 68.63,24.73 67.77C24.51 66.9,23.65 66.07,22.79 65.74C21.94 65.42,20.65 65.72,19.58 65.82C18.52 65.92,17.46 66.19,16.41 66.34C15.35 66.49,14.08 67.07,13.25 66.72C12.43 66.38,11.5 65.12,11.48 64.26C11.45 63.41,12.41 62.38,13.1 61.6C13.78 60.81,14.72 60.17,15.59 59.54C16.45 58.9,17.41 58.39,18.29 57.77C19.17 57.15,20.17 56.53,20.86 55.81C21.56 55.09,22.48 54.29,22.46 53.43C22.44 52.58,21.19 51.66,20.75 50.68C20.3 49.71,19.92 48.65,19.8 47.6C19.68 46.55,19.74 45.39,20.04 44.39C20.34 43.38,20.9 42.36,21.59 41.57C22.29 40.79,23.24 40.11,24.2 39.69C25.16 39.27,26.31 39.06,27.36 39.06C28.41 39.07,29.58 39.67,30.52 39.71C31.45 39.76,32.6 39.93,32.96 39.34C33.32 38.74,32.77 37.21,32.66 36.14C32.55 35.08,32.24 33.96,32.31 32.93C32.37 31.91,32.47 30.73,33.05 30C33.64 29.26,34.94 29.09,35.83 28.52C36.72 27.95,37.44 27,38.4 26.59C39.35 26.19,40.53 26,41.57 26.09C42.61 26.17,43.72 26.57,44.62 27.1C45.52 27.63,46.26 28.5,46.99 29.28C47.73 30.06,48.21 31.56,49.03 31.77C49.85 31.97,51.03 31.1,51.89 30.51C52.74 29.92,53.43 29.02,54.16 28.22C54.88 27.42,55.46 26.47,56.24 25.74C57.02 25,57.93 24.39,58.83 23.8C59.72 23.2,60.69 22.7,61.62 22.15C62.55 21.6,63.5 21.08,64.43 20.52C65.35 19.97,66.27 19.41,67.17 18.82C68.08 18.23,68.9 17.49,69.85 17C70.8 16.51,71.87 16.26,72.87 15.86C73.86 15.45,74.86 14.59,75.83 14.58C76.79 14.57,78.14 15.07,78.67 15.79Z"/></clipPath>
  </defs>
  <path d="M85.99 4.18C86.61 4.41,87.24 4.86,87.66 5.36C88.08 5.87,88.41 6.57,88.52 7.22C88.64 7.87,88.57 8.64,88.34 9.26C88.11 9.88,87.67 10.51,87.16 10.94C86.65 11.36,85.95 11.68,85.3 11.8C84.65 11.91,83.88 11.84,83.26 11.61C82.64 11.39,82.01 10.94,81.59 10.43C81.17 9.93,80.84 9.23,80.73 8.58C80.61 7.93,80.68 7.16,80.91 6.54C81.14 5.92,81.58 5.28,82.09 4.86C82.59 4.44,83.3 4.11,83.95 4C84.6 3.89,85.37 3.96,85.99 4.18ZM78.67 15.79C79.2 16.5,79.3 17.95,78.99 18.86C78.68 19.77,77.51 20.41,76.82 21.23C76.13 22.05,75.5 22.91,74.86 23.78C74.22 24.64,73.42 25.45,72.98 26.41C72.53 27.37,72.37 28.49,72.21 29.55C72.05 30.61,71.85 31.73,72 32.78C72.15 33.82,72.57 34.88,73.08 35.81C73.59 36.75,74.42 37.51,75.06 38.37C75.7 39.24,76.16 40.32,76.93 41.02C77.7 41.71,78.69 42.37,79.68 42.52C80.67 42.67,81.85 42.27,82.86 41.93C83.87 41.59,84.84 40.48,85.75 40.49C86.65 40.51,88.04 41.26,88.3 42C88.56 42.74,87.65 43.95,87.32 44.94C86.98 45.93,86.28 46.92,86.28 47.93C86.28 48.93,87.1 49.91,87.33 50.95C87.57 51.99,87.79 53.11,87.68 54.15C87.57 55.19,87.19 56.3,86.66 57.2C86.13 58.11,85.33 58.95,84.49 59.59C83.65 60.23,82.62 60.68,81.62 61.05C80.61 61.43,79.22 61.32,78.47 61.85C77.73 62.39,77.01 63.46,77.16 64.25C77.32 65.05,78.75 65.75,79.4 66.6C80.05 67.45,80.73 68.37,81.06 69.36C81.39 70.35,81.54 71.53,81.4 72.56C81.25 73.58,80.79 74.69,80.17 75.52C79.55 76.35,78.61 77.09,77.66 77.52C76.72 77.96,75.56 78.14,74.51 78.14C73.45 78.14,72.25 77.42,71.33 77.53C70.42 77.65,69.54 78.09,69.03 78.82C68.53 79.56,68.55 80.91,68.3 81.96C68.06 83,68.05 84.26,67.55 85.09C67.06 85.92,66.02 87.03,65.33 86.94C64.64 86.86,64.06 85.39,63.42 84.57C62.77 83.75,62.3 82.4,61.46 82.03C60.63 81.65,59.23 81.85,58.4 82.32C57.56 82.79,56.89 83.9,56.45 84.84C56.01 85.77,55.84 86.88,55.74 87.94C55.65 88.99,55.8 90.09,55.88 91.16C55.96 92.23,56.59 93.52,56.23 94.33C55.87 95.14,54.55 96.04,53.73 96C52.9 95.96,51.99 94.85,51.28 94.09C50.56 93.33,50.12 92.26,49.44 91.44C48.76 90.62,48.05 89.77,47.19 89.17C46.32 88.57,45.13 88.41,44.24 87.83C43.35 87.25,42.5 86.52,41.84 85.69C41.17 84.86,40.81 83.78,40.27 82.86C39.74 81.93,39.4 80.8,38.64 80.14C37.87 79.47,36.7 79.07,35.66 78.87C34.62 78.67,33.49 78.99,32.42 78.92C31.35 78.84,30.23 78.76,29.24 78.4C28.24 78.04,27.24 77.47,26.47 76.75C25.7 76.04,25.04 75.08,24.64 74.11C24.25 73.14,24.08 71.99,24.09 70.93C24.11 69.88,24.95 68.63,24.73 67.77C24.51 66.9,23.65 66.07,22.79 65.74C21.94 65.42,20.65 65.72,19.58 65.82C18.52 65.92,17.46 66.19,16.41 66.34C15.35 66.49,14.08 67.07,13.25 66.72C12.43 66.38,11.5 65.12,11.48 64.26C11.45 63.41,12.41 62.38,13.1 61.6C13.78 60.81,14.72 60.17,15.59 59.54C16.45 58.9,17.41 58.39,18.29 57.77C19.17 57.15,20.17 56.53,20.86 55.81C21.56 55.09,22.48 54.29,22.46 53.43C22.44 52.58,21.19 51.66,20.75 50.68C20.3 49.71,19.92 48.65,19.8 47.6C19.68 46.55,19.74 45.39,20.04 44.39C20.34 43.38,20.9 42.36,21.59 41.57C22.29 40.79,23.24 40.11,24.2 39.69C25.16 39.27,26.31 39.06,27.36 39.06C28.41 39.07,29.58 39.67,30.52 39.71C31.45 39.76,32.6 39.93,32.96 39.34C33.32 38.74,32.77 37.21,32.66 36.14C32.55 35.08,32.24 33.96,32.31 32.93C32.37 31.91,32.47 30.73,33.05 30C33.64 29.26,34.94 29.09,35.83 28.52C36.72 27.95,37.44 27,38.4 26.59C39.35 26.19,40.53 26,41.57 26.09C42.61 26.17,43.72 26.57,44.62 27.1C45.52 27.63,46.26 28.5,46.99 29.28C47.73 30.06,48.21 31.56,49.03 31.77C49.85 31.97,51.03 31.1,51.89 30.51C52.74 29.92,53.43 29.02,54.16 28.22C54.88 27.42,55.46 26.47,56.24 25.74C57.02 25,57.93 24.39,58.83 23.8C59.72 23.2,60.69 22.7,61.62 22.15C62.55 21.6,63.5 21.08,64.43 20.52C65.35 19.97,66.27 19.41,67.17 18.82C68.08 18.23,68.9 17.49,69.85 17C70.8 16.51,71.87 16.26,72.87 15.86C73.86 15.45,74.86 14.59,75.83 14.58C76.79 14.57,78.14 15.07,78.67 15.79Z" fill="url(#body)"/>
  <g clip-path="url(#inside)">
  </g>
</svg>
